<svg width="25" height="15" viewBox="0 0 25 15" fill="none" xmlns="http://www.w3.org/2000/svg">
<path d="M11.5245 0.555186L0.399387 11.6805C0.141869 11.9378 0 12.2813 0 12.6476C0 13.0138 0.141869 13.3573 0.399387 13.6146L1.21849 14.4339C1.75222 14.9671 2.61969 14.9671 3.15262 14.4339L12.4948 5.09173L21.8474 14.4443C22.1049 14.7016 22.4482 14.8437 22.8142 14.8437C23.1807 14.8437 23.524 14.7016 23.7817 14.4443L24.6006 13.625C24.8581 13.3675 25 13.0242 25 12.6579C25 12.2917 24.8581 11.9482 24.6006 11.6909L13.4653 0.555186C13.207 0.297262 12.8621 0.155597 12.4954 0.15641C12.1273 0.155597 11.7826 0.297262 11.5245 0.555186Z" fill="white"/>
</svg>
